<svg width="120" height="13" viewBox="0 0 120 13" fill="none" xmlns="http://www.w3.org/2000/svg">
<path d="M79.2772 0.45276C80.9222 0.393094 86.7504 0.349676 90.485 0.253069C99.1263 0.0439861 107.782 0.0491484 116.391 0.787787C117.737 0.903513 120.027 0.945261 119.942 2.86974C119.855 4.87249 118.31 6.01512 115.978 5.90729C114.567 5.84471 113.153 5.75153 111.738 5.67876C110.323 5.6077 108.908 5.53664 107.494 5.48087C104.666 5.35915 101.838 5.36161 99.0268 5.54087C90.8068 6.10964 82.5961 6.01323 74.3886 6.41351C67.0223 6.78299 59.6469 7.06238 52.2937 7.63421C50.5678 7.77944 48.8437 7.94507 47.1196 8.11921C46.2585 8.20797 45.3956 8.29164 44.5362 8.3889L41.9546 8.6824L36.7913 9.24897C35.0707 9.4401 33.3501 9.61421 31.6259 9.75943C30.1373 9.87935 28.6487 9.99588 27.1565 10.0869C25.6661 10.1796 24.1721 10.2536 22.6781 10.3243L18.1981 10.5719C16.7042 10.6612 15.2103 10.7454 13.7201 10.879C12.3164 10.9984 10.6744 11.5479 9.13849 11.6937C7.86699 11.8071 5.75502 12.0636 4.47936 12.0546C3.92804 12.0513 3.35456 12.0294 2.83297 12.167C0.438373 12.7962 -0.296555 12.1867 0.240398 9.90386C0.359373 9.40128 0.0706256 8.80091 0.619386 8.3977C0.64133 8.38055 0.686925 8.34794 0.707151 8.3274C2.33435 6.78109 4.25865 7.16365 6.11104 6.90026C15.2139 5.6455 24.3559 4.67458 33.507 3.80737C34.9107 3.67607 36.3144 3.54307 37.7216 3.43047L41.9381 3.08927C44.7473 2.84198 47.5584 2.62019 50.3569 2.29301C51.8892 2.10987 53.4118 1.73627 54.9847 1.81144L54.9576 1.81161C56.5833 1.6483 58.2069 1.41866 59.8382 1.33016C66.0091 1.02943 72.4503 0.556885 78.3839 0.558736C78.6214 0.560646 78.9346 0.461717 79.2772 0.45276Z" fill="#4785FF"/>
</svg>
