<svg width="38" height="38" viewBox="0 0 38 38" fill="none" xmlns="http://www.w3.org/2000/svg">
<g clip-path="url(#clip0_51_4618)">
<circle cx="19" cy="19" r="19" fill="#1E88E5"/>
<g clip-path="url(#clip1_51_4618)">
<path d="M24.0002 9C24.7959 9.00011 25.5801 9.19014 26.2876 9.55427C26.9951 9.91841 27.6055 10.4462 28.068 11.0936C28.5305 11.7411 28.8318 12.4896 28.9469 13.277C29.062 14.0643 28.9875 14.8678 28.7296 15.6205C28.4717 16.3733 28.0378 17.0536 27.4641 17.605C26.8904 18.1564 26.1934 18.5629 25.431 18.7907C24.6686 19.0185 23.8628 19.0611 23.0807 18.9149C22.2985 18.7686 21.5625 18.4379 20.9339 17.95L17.9502 20.9338C18.7301 21.9385 19.0978 23.2026 18.9784 24.4689C18.8591 25.7352 18.2616 26.9084 17.3077 27.7497C16.3538 28.5909 15.1151 29.0371 13.8439 28.9972C12.5726 28.9574 11.3643 28.4346 10.465 27.5352C9.5656 26.6359 9.04278 25.4276 9.00294 24.1563C8.96311 22.885 9.40924 21.6464 10.2505 20.6925C11.0918 19.7386 12.265 19.1411 13.5313 19.0218C14.7975 18.9024 16.0617 19.2701 17.0664 20.05L20.0502 17.0663C19.4764 16.3272 19.1215 15.4419 19.0258 14.5111C18.9302 13.5803 19.0976 12.6414 19.5091 11.801C19.9206 10.9607 20.5597 10.2527 21.3536 9.75752C22.1475 9.26235 23.0645 8.9999 24.0002 9ZM14.0002 20.25C13.0056 20.25 12.0518 20.6451 11.3485 21.3484C10.6453 22.0516 10.2502 23.0054 10.2502 24C10.2502 24.9946 10.6453 25.9484 11.3485 26.6517C12.0518 27.3549 13.0056 27.75 14.0002 27.75C14.9947 27.75 15.9486 27.3549 16.6518 26.6517C17.3551 25.9484 17.7502 24.9946 17.7502 24C17.7502 23.0054 17.3551 22.0516 16.6518 21.3484C15.9486 20.6451 14.9947 20.25 14.0002 20.25ZM24.0002 10.25C23.5077 10.25 23.0201 10.347 22.5651 10.5355C22.1101 10.7239 21.6967 11.0001 21.3485 11.3483C21.0003 11.6966 20.7241 12.11 20.5356 12.5649C20.3472 13.0199 20.2502 13.5075 20.2502 14C20.2502 14.4925 20.3472 14.9801 20.5356 15.4351C20.7241 15.89 21.0003 16.3034 21.3485 16.6517C21.6967 16.9999 22.1101 17.2761 22.5651 17.4645C23.0201 17.653 23.5077 17.75 24.0002 17.75C24.9947 17.75 25.9486 17.3549 26.6518 16.6517C27.3551 15.9484 27.7502 14.9946 27.7502 14C27.7502 13.0054 27.3551 12.0516 26.6518 11.3483C25.9486 10.6451 24.9947 10.25 24.0002 10.25Z" fill="white"/>
<path d="M29 21.5V29H21.5V21.5H29ZM27.75 22.75H22.75V27.75H27.75V22.75ZM16.5 9V16.5H9V9H16.5ZM15.25 10.25H10.25V15.25H15.25V10.25Z" fill="white"/>
</g>
</g>
<defs>
<clipPath id="clip0_51_4618">
<rect width="38" height="38" fill="white"/>
</clipPath>
<clipPath id="clip1_51_4618">
<rect width="20" height="20" fill="white" transform="translate(9 9)"/>
</clipPath>
</defs>
</svg>
