<svg width="122" height="38" viewBox="0 0 122 38" fill="none" xmlns="http://www.w3.org/2000/svg">
<g clip-path="url(#clip0_10_1327)">
<circle cx="19" cy="19" r="19" fill="#1E88E5"/>
<g clip-path="url(#clip1_10_1327)">
<path d="M24.0002 9C24.7959 9.00011 25.5801 9.19014 26.2876 9.55427C26.9951 9.91841 27.6055 10.4462 28.068 11.0936C28.5305 11.7411 28.8318 12.4896 28.9469 13.277C29.062 14.0643 28.9875 14.8678 28.7296 15.6205C28.4717 16.3733 28.0378 17.0536 27.4641 17.605C26.8904 18.1564 26.1934 18.5629 25.431 18.7907C24.6686 19.0185 23.8628 19.0611 23.0807 18.9149C22.2985 18.7686 21.5625 18.4379 20.9339 17.95L17.9502 20.9338C18.7301 21.9385 19.0978 23.2026 18.9784 24.4689C18.8591 25.7352 18.2616 26.9084 17.3077 27.7497C16.3538 28.5909 15.1151 29.0371 13.8439 28.9972C12.5726 28.9574 11.3643 28.4346 10.465 27.5352C9.5656 26.6359 9.04278 25.4276 9.00294 24.1563C8.96311 22.885 9.40924 21.6464 10.2505 20.6925C11.0918 19.7386 12.265 19.1411 13.5313 19.0218C14.7975 18.9024 16.0617 19.2701 17.0664 20.05L20.0502 17.0663C19.4764 16.3272 19.1215 15.4419 19.0258 14.5111C18.9302 13.5803 19.0976 12.6414 19.5091 11.801C19.9206 10.9607 20.5597 10.2527 21.3536 9.75752C22.1475 9.26235 23.0645 8.9999 24.0002 9ZM14.0002 20.25C13.0056 20.25 12.0518 20.6451 11.3485 21.3484C10.6453 22.0516 10.2502 23.0054 10.2502 24C10.2502 24.9946 10.6453 25.9484 11.3485 26.6517C12.0518 27.3549 13.0056 27.75 14.0002 27.75C14.9947 27.75 15.9486 27.3549 16.6518 26.6517C17.3551 25.9484 17.7502 24.9946 17.7502 24C17.7502 23.0054 17.3551 22.0516 16.6518 21.3484C15.9486 20.6451 14.9947 20.25 14.0002 20.25ZM24.0002 10.25C23.5077 10.25 23.0201 10.347 22.5651 10.5355C22.1101 10.7239 21.6967 11.0001 21.3485 11.3483C21.0003 11.6966 20.7241 12.11 20.5356 12.5649C20.3472 13.0199 20.2502 13.5075 20.2502 14C20.2502 14.4925 20.3472 14.9801 20.5356 15.4351C20.7241 15.89 21.0003 16.3034 21.3485 16.6517C21.6967 16.9999 22.1101 17.2761 22.5651 17.4645C23.0201 17.653 23.5077 17.75 24.0002 17.75C24.9947 17.75 25.9486 17.3549 26.6518 16.6517C27.3551 15.9484 27.7502 14.9946 27.7502 14C27.7502 13.0054 27.3551 12.0516 26.6518 11.3483C25.9486 10.6451 24.9947 10.25 24.0002 10.25Z" fill="white"/>
<path d="M29 21.5V29H21.5V21.5H29ZM27.75 22.75H22.75V27.75H27.75V22.75ZM16.5 9V16.5H9V9H16.5ZM15.25 10.25H10.25V15.25H15.25V10.25Z" fill="white"/>
</g>
</g>
<path d="M52.408 27.336C50.68 27.336 49.304 26.864 48.28 25.92C47.272 24.976 46.768 23.656 46.768 21.96V20.376H49.936V21.96C49.936 22.712 50.144 23.304 50.56 23.736C50.976 24.152 51.56 24.36 52.312 24.36C53.016 24.36 53.56 24.152 53.944 23.736C54.344 23.32 54.544 22.728 54.544 21.96V13.08H51.664V10.2H59.632V13.08H57.712V21.96C57.712 23.704 57.24 25.04 56.296 25.968C55.352 26.88 54.056 27.336 52.408 27.336ZM67.0784 27.336C65.8944 27.336 64.8304 27.096 63.8864 26.616C62.9424 26.136 62.1984 25.44 61.6544 24.528C61.1104 23.616 60.8384 22.52 60.8384 21.24V20.856C60.8384 19.576 61.1104 18.48 61.6544 17.568C62.1984 16.656 62.9424 15.96 63.8864 15.48C64.8304 15 65.8944 14.76 67.0784 14.76C68.2624 14.76 69.3264 15 70.2704 15.48C71.2144 15.96 71.9584 16.656 72.5024 17.568C73.0464 18.48 73.3184 19.576 73.3184 20.856V21.24C73.3184 22.52 73.0464 23.616 72.5024 24.528C71.9584 25.44 71.2144 26.136 70.2704 26.616C69.3264 27.096 68.2624 27.336 67.0784 27.336ZM67.0784 24.648C68.0064 24.648 68.7744 24.352 69.3824 23.76C69.9904 23.152 70.2944 22.288 70.2944 21.168V20.928C70.2944 19.808 69.9904 18.952 69.3824 18.36C68.7904 17.752 68.0224 17.448 67.0784 17.448C66.1504 17.448 65.3824 17.752 64.7744 18.36C64.1664 18.952 63.8624 19.808 63.8624 20.928V21.168C63.8624 22.288 64.1664 23.152 64.7744 23.76C65.3824 24.352 66.1504 24.648 67.0784 24.648ZM83.2617 27.336C82.1897 27.336 81.3657 27.152 80.7897 26.784C80.2137 26.416 79.7897 26.008 79.5177 25.56H79.0857V27H76.1097V10.2H79.1337V16.464H79.5657C79.7417 16.176 79.9737 15.904 80.2617 15.648C80.5657 15.392 80.9577 15.184 81.4377 15.024C81.9337 14.848 82.5417 14.76 83.2617 14.76C84.2217 14.76 85.1097 15 85.9257 15.48C86.7417 15.944 87.3977 16.632 87.8937 17.544C88.3897 18.456 88.6377 19.56 88.6377 20.856V21.24C88.6377 22.536 88.3897 23.64 87.8937 24.552C87.3977 25.464 86.7417 26.16 85.9257 26.64C85.1097 27.104 84.2217 27.336 83.2617 27.336ZM82.3497 24.696C83.2777 24.696 84.0537 24.4 84.6777 23.808C85.3017 23.2 85.6137 22.32 85.6137 21.168V20.928C85.6137 19.776 85.3017 18.904 84.6777 18.312C84.0697 17.704 83.2937 17.4 82.3497 17.4C81.4217 17.4 80.6457 17.704 80.0217 18.312C79.3977 18.904 79.0857 19.776 79.0857 20.928V21.168C79.0857 22.32 79.3977 23.2 80.0217 23.808C80.6457 24.4 81.4217 24.696 82.3497 24.696ZM91.3184 27V10.2H94.4864V17.136H100.726V10.2H103.894V27H100.726V20.016H94.4864V27H91.3184ZM113.596 27.336C111.484 27.336 109.804 26.76 108.556 25.608C107.308 24.44 106.684 22.776 106.684 20.616V16.584C106.684 14.424 107.308 12.768 108.556 11.616C109.804 10.448 111.484 9.864 113.596 9.864C115.708 9.864 117.388 10.448 118.636 11.616C119.884 12.768 120.508 14.424 120.508 16.584V20.616C120.508 22.776 119.884 24.44 118.636 25.608C117.388 26.76 115.708 27.336 113.596 27.336ZM113.596 24.504C114.78 24.504 115.7 24.16 116.356 23.472C117.012 22.784 117.34 21.864 117.34 20.712V16.488C117.34 15.336 117.012 14.416 116.356 13.728C115.7 13.04 114.78 12.696 113.596 12.696C112.428 12.696 111.508 13.04 110.836 13.728C110.18 14.416 109.852 15.336 109.852 16.488V20.712C109.852 21.864 110.18 22.784 110.836 23.472C111.508 24.16 112.428 24.504 113.596 24.504ZM114.7 31.32C113.916 31.32 113.276 31.072 112.78 30.576C112.3 30.096 112.06 29.448 112.06 28.632V27H115.132V28.152C115.132 28.632 115.356 28.872 115.804 28.872H117.22V31.32H114.7Z" fill="#E0E0E0"/>
<defs>
<clipPath id="clip0_10_1327">
<rect width="38" height="38" fill="white"/>
</clipPath>
<clipPath id="clip1_10_1327">
<rect width="20" height="20" fill="white" transform="translate(9 9)"/>
</clipPath>
</defs>
</svg>
